<svg id="ej53AKTfVUn1" xmlns="http://www.w3.org/2000/svg" xmlns:xlink="http://www.w3.org/1999/xlink" viewBox="0 0 460 380" shape-rendering="geometricPrecision" text-rendering="geometricPrecision" project-id="669defc8f68b4f6ea82c23161f44e593" export-id="1b6d700f907341e0849aeca57bcb6756" cached="false"><path d="M19.4579,0L0,0v43.9375L2.3125,46.25h50.875L55.5,43.9375v-39.3125h-31.417L22.4479,2.98985L19.4579,0Zm2.7094,9.25L17.5421,4.625h-12.9171v37h46.25v-25.4375h-21.7702L22.1673,9.25ZM50.875,11.5625v-2.3125h-22.167l2.3125,2.3125h19.8545Z" transform="matrix(8.043653 0 0 8.043653 6.788629 3.990524)" clip-rule="evenodd" fill="#34d399" fill-rule="evenodd"/><path d="M8,14.0412C8,12.0917,9.19971,11,10.8118,11s2.8118,1.0917,2.8118,3.0412v19.5756h6.6758c1.9109,0,2.7369,1.4829,2.6994,2.8073C22.925,37.7133,21.949,39,20.3006,39h-9.3763C9.5,37.5,9.5,37.5,8,35.8015v-21.7603Z" transform="matrix(8.043653 0 0 8.043653 10.25602-4.594475)" fill="#34d399"/></svg>
